<svg version="1.1" id="Layer_1" xmlns="http://www.w3.org/2000/svg" xmlns:xlink="http://www.w3.org/1999/xlink" x="0px" y="0px"
	 width="100%" viewBox="0 0 2000 1247" enable-background="new 0 0 2000 1247" xml:space="preserve">
<path fill="#4C6971" opacity="1.000000" stroke="none" 
	d="
M670.000000,0.999999 
	C1113.621094,1.000000 1557.242065,1.000000 2000.931641,1.000000 
	C2000.931641,416.578308 2000.931641,832.156677 2000.931641,1248.000000 
	C1557.633911,1248.000000 1114.267822,1248.000000 670.673340,1247.631348 
	C681.758667,1246.177734 693.104492,1245.350098 704.377930,1243.942505 
	C718.364929,1242.196411 732.467651,1240.773315 746.204529,1237.767212 
	C767.866150,1233.026855 789.473389,1227.788086 810.725647,1221.485596 
	C843.022766,1211.907471 874.215027,1199.230347 904.372742,1184.200317 
	C917.531616,1177.642212 930.284790,1170.246704 943.062256,1162.951416 
	C971.579590,1146.669556 998.116150,1127.512329 1023.602783,1106.864258 
	C1025.624756,1105.226074 1027.541504,1103.458130 1030.369385,1101.001587 
	C1010.497559,1101.001587 992.004883,1100.984375 973.512512,1101.046997 
	C972.474670,1101.050537 971.269409,1101.481323 970.427246,1102.100830 
	C946.794434,1119.487427 921.917114,1134.906982 895.666260,1147.949341 
	C878.684082,1156.386475 861.452881,1164.505737 843.770020,1171.302124 
	C822.809326,1179.358154 801.442749,1186.521362 779.887817,1192.825928 
	C754.598389,1200.222656 728.744019,1205.401855 702.462646,1208.064819 
	C685.769714,1209.756348 669.084900,1212.475464 652.365540,1212.733643 
	C628.186523,1213.107422 603.934509,1212.359375 579.798584,1210.786865 
	C560.499146,1209.529297 541.121033,1207.390259 522.149353,1203.721313 
	C498.477356,1199.143555 474.866516,1193.649414 451.805664,1186.651489 
	C416.894897,1176.057617 383.045502,1162.442627 351.146088,1144.491943 
	C334.787781,1135.286621 318.397430,1126.060425 302.647980,1115.875122 
	C289.560242,1107.411255 277.189819,1097.786621 264.868073,1088.204956 
	C253.101776,1079.055176 241.441452,1069.701538 230.411392,1059.691650 
	C219.531494,1049.818115 209.299637,1039.200562 199.158752,1028.552002 
	C190.881943,1019.860779 182.689957,1011.010132 175.291779,1001.578064 
	C161.881561,984.481140 148.537247,967.282166 136.164154,949.433472 
	C115.060822,918.991089 97.832619,886.323486 83.636177,852.116272 
	C71.175667,822.091858 61.112717,791.300110 53.648815,759.593567 
	C47.973228,735.483704 43.954269,711.153564 41.103153,686.613708 
	C39.582703,673.526978 38.395622,660.341675 38.157764,647.180969 
	C37.854992,630.428528 38.163879,613.626953 39.130035,596.899841 
	C40.210369,578.195740 41.609364,559.452271 44.183891,540.908447 
	C46.789520,522.140686 50.109062,503.370056 54.751152,485.014221 
	C59.858227,464.819763 66.501297,444.987823 73.070168,425.195404 
	C81.508240,399.770935 92.486137,375.417908 105.034813,351.727020 
	C121.613541,320.427673 140.054413,290.347260 162.678543,263.046631 
	C177.682526,244.941315 192.935699,226.990784 208.995911,209.830673 
	C219.669968,198.425568 231.964279,188.536743 243.535172,177.971207 
	C260.700043,162.297745 279.267517,148.385147 298.752930,135.826859 
	C315.886932,124.784065 333.394989,114.215286 351.359589,104.598648 
	C368.207794,95.579628 385.567200,87.339165 403.257355,80.117180 
	C422.432037,72.289124 442.059814,65.424866 461.845184,59.284775 
	C477.855255,54.316303 494.274750,50.453419 510.728912,47.191063 
	C526.604614,44.043404 542.718262,41.970612 558.799744,40.023190 
	C573.339783,38.262432 587.960938,36.467323 602.575684,36.180187 
	C630.236816,35.636730 657.947327,35.206894 685.496094,38.972595 
	C701.268616,41.128571 717.213867,42.300529 732.833374,45.235260 
	C760.892578,50.507256 788.746277,57.015701 815.500244,67.148300 
	C838.690247,75.931129 861.645874,85.389862 884.379089,95.297867 
	C895.757263,100.256958 906.668335,106.452187 917.326172,112.860794 
	C932.996216,122.283226 948.302856,132.316071 963.652771,142.261093 
	C968.883911,145.650223 973.707886,148.552658 980.623718,148.218216 
	C995.421448,147.502563 1010.277771,148.006119 1025.110107,147.986221 
	C1026.497314,147.984360 1027.884277,147.811035 1030.541016,147.631561 
	C1028.106079,145.850204 1026.690674,144.858231 1025.321289,143.806274 
	C1010.656494,132.540527 996.395081,120.698105 981.248779,110.122704 
	C957.240784,93.359909 931.997314,78.463959 905.778259,65.439606 
	C888.697144,56.954517 871.133728,49.308323 853.354309,42.398064 
	C835.714905,35.542244 817.746826,29.320602 799.532349,24.213696 
	C780.396057,18.848312 760.909973,14.528054 741.366272,10.877594 
	C723.178833,7.480488 704.717529,5.544459 686.370300,3.011860 
	C680.924683,2.260159 675.457397,1.666224 670.000000,0.999999 
M1083.123657,241.083801 
	C1065.640747,240.055878 1048.160156,238.188354 1030.674438,238.138672 
	C930.344910,237.853500 830.014099,237.999603 729.683777,237.999390 
	C727.916687,237.999374 726.149536,237.999390 724.417664,237.999390 
	C724.417664,496.037140 724.417664,753.406372 724.417664,1010.672668 
	C757.758911,1010.672668 790.682556,1010.672668 824.215820,1010.672668 
	C824.215820,908.304871 824.215820,806.263428 824.215820,703.999695 
	C826.818359,703.999695 828.810669,703.989990 830.802917,704.001099 
	C890.408203,704.332886 950.013306,704.778931 1009.619019,704.922058 
	C1024.708374,704.958313 1039.536255,706.538879 1054.157837,710.034546 
	C1086.296509,717.717957 1110.468628,736.279907 1126.354736,765.031067 
	C1138.238770,786.539307 1144.540283,810.152588 1148.899658,834.204956 
	C1151.119995,846.455872 1152.285767,858.895020 1154.071777,871.228333 
	C1156.300903,886.621460 1158.801514,901.975952 1160.953735,917.379395 
	C1162.838623,930.869080 1164.293579,944.418518 1166.138550,957.914185 
	C1168.311523,973.809082 1170.974976,989.642700 1172.817017,1005.573303 
	C1173.327515,1009.988159 1174.553101,1011.100708 1178.763794,1011.080811 
	C1210.095459,1010.932800 1241.428223,1011.000549 1272.760620,1011.000549 
	C1274.389648,1011.000549 1276.018555,1011.000549 1277.940918,1011.000549 
	C1277.195312,1005.267151 1276.637817,1000.074219 1275.826904,994.921143 
	C1273.610718,980.838257 1271.188232,966.787354 1269.033936,952.695251 
	C1266.556519,936.490417 1264.351807,920.244019 1261.894287,904.036011 
	C1259.345581,887.227356 1256.625000,870.444824 1254.000854,853.647461 
	C1252.283691,842.654236 1251.107666,831.547791 1248.790771,820.683594 
	C1245.285522,804.247925 1241.438721,787.856628 1236.937378,771.668762 
	C1230.493652,748.495789 1222.466064,725.986572 1208.130859,706.137451 
	C1194.617432,687.426270 1177.566895,672.831909 1156.882690,663.283936 
	C1143.355957,657.039795 1128.505615,653.666565 1114.266113,648.953369 
	C1113.348877,648.649841 1112.585693,647.880981 1111.904053,647.429993 
	C1126.260376,644.208496 1140.220947,641.523987 1153.932983,637.899048 
	C1177.357788,631.706360 1198.359009,620.599487 1216.208740,604.138672 
	C1227.381592,593.835083 1235.840820,581.300354 1243.008057,567.922546 
	C1259.196167,537.706604 1265.064087,504.923340 1265.802246,471.186066 
	C1266.225830,451.833008 1265.042969,432.413452 1263.846191,413.069458 
	C1263.242310,403.305359 1261.516357,393.527588 1259.388916,383.958038 
	C1254.852905,363.554413 1247.220703,344.321228 1236.185425,326.465881 
	C1224.988525,308.348755 1211.212158,292.557159 1194.006714,280.007874 
	C1176.223999,267.037445 1156.497559,257.645721 1135.244751,252.148132 
	C1118.357544,247.779846 1101.071289,244.953781 1083.123657,241.083801 
z"/>
<path fill="#4C6971" opacity="1.000000" stroke="none" 
	d="
M584.000000,1248.000000 
	C389.699860,1248.000000 195.399734,1248.000000 1.049796,1248.000000 
	C1.049796,832.437561 1.049796,416.875092 1.049796,1.000000 
	C195.029266,1.000000 389.058685,1.000000 583.321960,1.369030 
	C578.625916,2.154410 573.681641,2.445211 568.768982,3.011021 
	C554.924683,4.605521 540.926208,5.465964 527.292786,8.157351 
	C501.189758,13.310375 475.080902,18.713173 449.374908,25.523865 
	C420.636383,33.138004 392.915497,44.068535 365.961060,56.598389 
	C338.026764,69.583740 310.628540,83.796661 285.288086,101.401474 
	C265.184875,115.367798 245.646729,130.193359 226.389740,145.314972 
	C214.519058,154.636429 203.387512,164.955231 192.407333,175.337311 
	C183.257675,183.988541 174.672546,193.254745 166.095535,202.488358 
	C158.363083,210.812790 150.415024,219.033081 143.563751,228.059616 
	C129.950546,245.995026 116.570053,264.144989 103.963913,282.794678 
	C94.097923,297.390533 84.731827,312.451141 76.612785,328.069031 
	C66.347000,347.816406 56.493553,367.918793 48.428822,388.633698 
	C38.560860,413.980377 29.618456,439.810120 22.312925,465.999237 
	C14.007380,495.773254 8.460472,526.270752 6.004376,557.195190 
	C4.541656,575.612061 2.543103,594.034912 2.219716,612.480225 
	C1.891902,631.178162 3.220330,649.911865 4.039409,668.620422 
	C4.457765,678.176025 4.835838,687.781738 6.141265,697.239319 
	C8.378876,713.450317 11.095790,729.605530 14.032100,745.707458 
	C19.449587,775.415405 27.649294,804.347473 37.779301,832.826538 
	C49.003139,864.380493 62.250732,894.966125 78.684998,924.115967 
	C87.739830,940.176697 96.814507,956.324341 107.275787,971.468872 
	C120.076508,990.000122 134.060471,1007.742676 148.070007,1025.400024 
	C156.957260,1036.601318 166.570679,1047.261963 176.335037,1057.720093 
	C183.332016,1065.214355 190.976288,1072.128418 198.586121,1079.020508 
	C209.808151,1089.184326 220.802170,1099.680542 232.717667,1108.978882 
	C249.436661,1122.025513 266.685120,1134.430054 284.115326,1146.520752 
	C313.684113,1167.031738 345.571136,1183.413330 378.490387,1197.804810 
	C402.571991,1208.332520 427.258606,1217.158813 452.568207,1224.347290 
	C490.606537,1235.151123 529.132019,1243.102417 568.624695,1246.048462 
	C573.769714,1246.432129 578.875854,1247.336670 584.000000,1248.000000 
z"/>
<path fill="#DEE0E4" opacity="1.000000" stroke="none" 
	d="
M584.468628,1248.000000 
	C578.875854,1247.336670 573.769714,1246.432129 568.624695,1246.048462 
	C529.132019,1243.102417 490.606537,1235.151123 452.568207,1224.347290 
	C427.258606,1217.158813 402.571991,1208.332520 378.490387,1197.804810 
	C345.571136,1183.413330 313.684113,1167.031738 284.115326,1146.520752 
	C266.685120,1134.430054 249.436661,1122.025513 232.717667,1108.978882 
	C220.802170,1099.680542 209.808151,1089.184326 198.586121,1079.020508 
	C190.976288,1072.128418 183.332016,1065.214355 176.335037,1057.720093 
	C166.570679,1047.261963 156.957260,1036.601318 148.070007,1025.400024 
	C134.060471,1007.742676 120.076508,990.000122 107.275787,971.468872 
	C96.814507,956.324341 87.739830,940.176697 78.684998,924.115967 
	C62.250732,894.966125 49.003139,864.380493 37.779301,832.826538 
	C27.649294,804.347473 19.449587,775.415405 14.032100,745.707458 
	C11.095790,729.605530 8.378876,713.450317 6.141265,697.239319 
	C4.835838,687.781738 4.457765,678.176025 4.039409,668.620422 
	C3.220330,649.911865 1.891902,631.178162 2.219716,612.480225 
	C2.543103,594.034912 4.541656,575.612061 6.004376,557.195190 
	C8.460472,526.270752 14.007380,495.773254 22.312925,465.999237 
	C29.618456,439.810120 38.560860,413.980377 48.428822,388.633698 
	C56.493553,367.918793 66.347000,347.816406 76.612785,328.069031 
	C84.731827,312.451141 94.097923,297.390533 103.963913,282.794678 
	C116.570053,264.144989 129.950546,245.995026 143.563751,228.059616 
	C150.415024,219.033081 158.363083,210.812790 166.095535,202.488358 
	C174.672546,193.254745 183.257675,183.988541 192.407333,175.337311 
	C203.387512,164.955231 214.519058,154.636429 226.389740,145.314972 
	C245.646729,130.193359 265.184875,115.367798 285.288086,101.401474 
	C310.628540,83.796661 338.026764,69.583740 365.961060,56.598389 
	C392.915497,44.068535 420.636383,33.138004 449.374908,25.523865 
	C475.080902,18.713173 501.189758,13.310375 527.292786,8.157351 
	C540.926208,5.465964 554.924683,4.605521 568.768982,3.011021 
	C573.681641,2.445211 578.625916,2.154410 583.777893,1.369030 
	C612.354248,1.000000 640.708435,1.000000 669.531372,0.999999 
	C675.457397,1.666224 680.924683,2.260159 686.370300,3.011860 
	C704.717529,5.544459 723.178833,7.480488 741.366272,10.877594 
	C760.909973,14.528054 780.396057,18.848312 799.532349,24.213696 
	C817.746826,29.320602 835.714905,35.542244 853.354309,42.398064 
	C871.133728,49.308323 888.697144,56.954517 905.778259,65.439606 
	C931.997314,78.463959 957.240784,93.359909 981.248779,110.122704 
	C996.395081,120.698105 1010.656494,132.540527 1025.321289,143.806274 
	C1026.690674,144.858231 1028.106079,145.850204 1030.541016,147.631561 
	C1027.884277,147.811035 1026.497314,147.984360 1025.110107,147.986221 
	C1010.277771,148.006119 995.421448,147.502563 980.623718,148.218216 
	C973.707886,148.552658 968.883911,145.650223 963.652771,142.261093 
	C948.302856,132.316071 932.996216,122.283226 917.326172,112.860794 
	C906.668335,106.452187 895.757263,100.256958 884.379089,95.297867 
	C861.645874,85.389862 838.690247,75.931129 815.500244,67.148300 
	C788.746277,57.015701 760.892578,50.507256 732.833374,45.235260 
	C717.213867,42.300529 701.268616,41.128571 685.496094,38.972595 
	C657.947327,35.206894 630.236816,35.636730 602.575684,36.180187 
	C587.960938,36.467323 573.339783,38.262432 558.799744,40.023190 
	C542.718262,41.970612 526.604614,44.043404 510.728912,47.191063 
	C494.274750,50.453419 477.855255,54.316303 461.845184,59.284775 
	C442.059814,65.424866 422.432037,72.289124 403.257355,80.117180 
	C385.567200,87.339165 368.207794,95.579628 351.359589,104.598648 
	C333.394989,114.215286 315.886932,124.784065 298.752930,135.826859 
	C279.267517,148.385147 260.700043,162.297745 243.535172,177.971207 
	C231.964279,188.536743 219.669968,198.425568 208.995911,209.830673 
	C192.935699,226.990784 177.682526,244.941315 162.678543,263.046631 
	C140.054413,290.347260 121.613541,320.427673 105.034813,351.727020 
	C92.486137,375.417908 81.508240,399.770935 73.070168,425.195404 
	C66.501297,444.987823 59.858227,464.819763 54.751152,485.014221 
	C50.109062,503.370056 46.789520,522.140686 44.183891,540.908447 
	C41.609364,559.452271 40.210369,578.195740 39.130035,596.899841 
	C38.163879,613.626953 37.854992,630.428528 38.157764,647.180969 
	C38.395622,660.341675 39.582703,673.526978 41.103153,686.613708 
	C43.954269,711.153564 47.973228,735.483704 53.648815,759.593567 
	C61.112717,791.300110 71.175667,822.091858 83.636177,852.116272 
	C97.832619,886.323486 115.060822,918.991089 136.164154,949.433472 
	C148.537247,967.282166 161.881561,984.481140 175.291779,1001.578064 
	C182.689957,1011.010132 190.881943,1019.860779 199.158752,1028.552002 
	C209.299637,1039.200562 219.531494,1049.818115 230.411392,1059.691650 
	C241.441452,1069.701538 253.101776,1079.055176 264.868073,1088.204956 
	C277.189819,1097.786621 289.560242,1107.411255 302.647980,1115.875122 
	C318.397430,1126.060425 334.787781,1135.286621 351.146088,1144.491943 
	C383.045502,1162.442627 416.894897,1176.057617 451.805664,1186.651489 
	C474.866516,1193.649414 498.477356,1199.143555 522.149353,1203.721313 
	C541.121033,1207.390259 560.499146,1209.529297 579.798584,1210.786865 
	C603.934509,1212.359375 628.186523,1213.107422 652.365540,1212.733643 
	C669.084900,1212.475464 685.769714,1209.756348 702.462646,1208.064819 
	C728.744019,1205.401855 754.598389,1200.222656 779.887817,1192.825928 
	C801.442749,1186.521362 822.809326,1179.358154 843.770020,1171.302124 
	C861.452881,1164.505737 878.684082,1156.386475 895.666260,1147.949341 
	C921.917114,1134.906982 946.794434,1119.487427 970.427246,1102.100830 
	C971.269409,1101.481323 972.474670,1101.050537 973.512512,1101.046997 
	C992.004883,1100.984375 1010.497559,1101.001587 1030.369385,1101.001587 
	C1027.541504,1103.458130 1025.624756,1105.226074 1023.602783,1106.864258 
	C998.116150,1127.512329 971.579590,1146.669556 943.062256,1162.951416 
	C930.284790,1170.246704 917.531616,1177.642212 904.372742,1184.200317 
	C874.215027,1199.230347 843.022766,1211.907471 810.725647,1221.485596 
	C789.473389,1227.788086 767.866150,1233.026855 746.204529,1237.767212 
	C732.467651,1240.773315 718.364929,1242.196411 704.377930,1243.942505 
	C693.104492,1245.350098 681.758667,1246.177734 670.222473,1247.631348 
	C641.645752,1248.000000 613.291565,1248.000000 584.468628,1248.000000 
z"/>
<path fill="#DEE0E4" opacity="1.000000" stroke="none" 
	d="
M1083.542969,241.263397 
	C1101.071289,244.953781 1118.357544,247.779846 1135.244751,252.148132 
	C1156.497559,257.645721 1176.223999,267.037445 1194.006714,280.007874 
	C1211.212158,292.557159 1224.988525,308.348755 1236.185425,326.465881 
	C1247.220703,344.321228 1254.852905,363.554413 1259.388916,383.958038 
	C1261.516357,393.527588 1263.242310,403.305359 1263.846191,413.069458 
	C1265.042969,432.413452 1266.225830,451.833008 1265.802246,471.186066 
	C1265.064087,504.923340 1259.196167,537.706604 1243.008057,567.922546 
	C1235.840820,581.300354 1227.381592,593.835083 1216.208740,604.138672 
	C1198.359009,620.599487 1177.357788,631.706360 1153.932983,637.899048 
	C1140.220947,641.523987 1126.260376,644.208496 1111.904053,647.429993 
	C1112.585693,647.880981 1113.348877,648.649841 1114.266113,648.953369 
	C1128.505615,653.666565 1143.355957,657.039795 1156.882690,663.283936 
	C1177.566895,672.831909 1194.617432,687.426270 1208.130859,706.137451 
	C1222.466064,725.986572 1230.493652,748.495789 1236.937378,771.668762 
	C1241.438721,787.856628 1245.285522,804.247925 1248.790771,820.683594 
	C1251.107666,831.547791 1252.283691,842.654236 1254.000854,853.647461 
	C1256.625000,870.444824 1259.345581,887.227356 1261.894287,904.036011 
	C1264.351807,920.244019 1266.556519,936.490417 1269.033936,952.695251 
	C1271.188232,966.787354 1273.610718,980.838257 1275.826904,994.921143 
	C1276.637817,1000.074219 1277.195312,1005.267151 1277.940918,1011.000549 
	C1276.018555,1011.000549 1274.389648,1011.000549 1272.760620,1011.000549 
	C1241.428223,1011.000549 1210.095459,1010.932800 1178.763794,1011.080811 
	C1174.553101,1011.100708 1173.327515,1009.988159 1172.817017,1005.573303 
	C1170.974976,989.642700 1168.311523,973.809082 1166.138550,957.914185 
	C1164.293579,944.418518 1162.838623,930.869080 1160.953735,917.379395 
	C1158.801514,901.975952 1156.300903,886.621460 1154.071777,871.228333 
	C1152.285767,858.895020 1151.119995,846.455872 1148.899658,834.204956 
	C1144.540283,810.152588 1138.238770,786.539307 1126.354736,765.031067 
	C1110.468628,736.279907 1086.296509,717.717957 1054.157837,710.034546 
	C1039.536255,706.538879 1024.708374,704.958313 1009.619019,704.922058 
	C950.013306,704.778931 890.408203,704.332886 830.802917,704.001099 
	C828.810669,703.989990 826.818359,703.999695 824.215820,703.999695 
	C824.215820,806.263428 824.215820,908.304871 824.215820,1010.672668 
	C790.682556,1010.672668 757.758911,1010.672668 724.417664,1010.672668 
	C724.417664,753.406372 724.417664,496.037140 724.417664,237.999390 
	C726.149536,237.999390 727.916687,237.999374 729.683777,237.999390 
	C830.014099,237.999603 930.344910,237.853500 1030.674438,238.138672 
	C1048.160156,238.188354 1065.640747,240.055878 1083.542969,241.263397 
M1066.601074,326.980591 
	C1054.083984,325.320251 1041.576538,322.313751 1029.048218,322.224365 
	C962.218567,321.747345 895.383606,321.999908 828.550537,322.000092 
	C826.795959,322.000092 825.041382,322.000092 823.290955,322.000092 
	C823.290955,423.015167 823.290955,523.272217 823.290955,624.000427 
	C825.536255,624.000427 827.495972,624.009521 829.455566,623.999207 
	C892.562134,623.667114 955.668396,623.187317 1018.775330,623.086426 
	C1038.295776,623.055176 1057.482788,621.339172 1076.308105,616.048340 
	C1098.254639,609.880310 1117.571533,599.613892 1132.134521,581.446838 
	C1152.410156,556.153320 1160.822998,526.642517 1162.880981,494.988892 
	C1163.625610,483.537323 1162.822144,471.993347 1163.040527,460.497528 
	C1163.431152,439.933777 1160.890259,419.856201 1153.974487,400.408234 
	C1146.434937,379.206299 1134.651733,361.138123 1116.266113,347.600647 
	C1101.589478,336.794037 1084.967407,330.931335 1066.601074,326.980591 
z"/>
<path fill="#4C6971" opacity="1.000000" stroke="none" 
	d="
M1067.031372,326.990021 
	C1084.967407,330.931335 1101.589478,336.794037 1116.266113,347.600647 
	C1134.651733,361.138123 1146.434937,379.206299 1153.974487,400.408234 
	C1160.890259,419.856201 1163.431152,439.933777 1163.040527,460.497528 
	C1162.822144,471.993347 1163.625610,483.537323 1162.880981,494.988892 
	C1160.822998,526.642517 1152.410156,556.153320 1132.134521,581.446838 
	C1117.571533,599.613892 1098.254639,609.880310 1076.308105,616.048340 
	C1057.482788,621.339172 1038.295776,623.055176 1018.775330,623.086426 
	C955.668396,623.187317 892.562134,623.667114 829.455566,623.999207 
	C827.495972,624.009521 825.536255,624.000427 823.290955,624.000427 
	C823.290955,523.272217 823.290955,423.015167 823.290955,322.000092 
	C825.041382,322.000092 826.795959,322.000092 828.550537,322.000092 
	C895.383606,321.999908 962.218567,321.747345 1029.048218,322.224365 
	C1041.576538,322.313751 1054.083984,325.320251 1067.031372,326.990021 
z"/>
</svg>